# xmcd CD database file
#
# Track frame offsets:
#	150
#	11495
#	25176
#	34880
#	45217
#	53838
#	70735
#	82378
#	96290
#	106318
#	122151
#	139410
#	145579
#
# Disc length: 2120 seconds
#
# Revision: 0
# Processed by: cddbd v1.5.2PL0 Copyright (c) Steve Scherf et al.
# Submitted via: CDex 1.51
#
DISCID=af08460d
DTITLE=Les Batteux-Slaques - Ca sonne le cul
DYEAR=2006
DGENRE=Country
TTITLE0=Chanson des colons
TTITLE1=Le gros frisé
TTITLE2=Le p'tit Denis
TTITLE3=La mondialisation
TTITLE4=Croque le nanane
TTITLE5=Le troupeau
TTITLE6=Huguette
TTITLE7=J'ai soif!
TTITLE8=Y'en a une
TTITLE9=Les 4 pourris
TTITLE10=Viens vers le Seigneur
TTITLE11=La poule
TTITLE12=Toune Cachée
EXTD=YEAR: 2006
EXTT0=
EXTT1=
EXTT2=
EXTT3=
EXTT4=
EXTT5=
EXTT6=
EXTT7=
EXTT8=
EXTT9=
EXTT10=
EXTT11=
EXTT12=
PLAYORDER=
